<?xml version="1.0" encoding="utf-8"?>
<!-- Generator: Adobe Illustrator 26.0.0, SVG Export Plug-In . SVG Version: 6.00 Build 0)  -->
<svg version="1.1" id="Layer_1" xmlns="http://www.w3.org/2000/svg" xmlns:xlink="http://www.w3.org/1999/xlink" x="0px" y="0px"
	 viewBox="0 0 36.63 30" style="enable-background:new 0 0 36.63 30;" xml:space="preserve">
<style type="text/css">
	.st0{fill:#FFFFFF;}
</style>
<g>
	<path class="st0" d="M32.76,22.99c0,3.59-2.89,6.48-6.47,6.48c-3.6,0-6.5-2.89-6.5-6.49c0-3.59,2.9-6.49,6.51-6.48
		C29.87,16.5,32.76,19.4,32.76,22.99z M30.06,20.65c-2.04,2.04-4.08,4.08-6.12,6.12c1.37,1,3.85,1.03,5.5-0.61
		C31.09,24.52,31.07,22.03,30.06,20.65z M28.61,19.19c-1.58-1.09-4.17-0.95-5.75,0.89c-1.47,1.72-1.26,4.11-0.37,5.22
		C24.52,23.27,26.56,21.23,28.61,19.19z"/>
	<path class="st0" d="M17.78,14.5c-3.87,0-6.98-3.12-6.98-7c0-3.86,3.13-6.98,7.01-6.97c3.86,0,6.97,3.13,6.97,7.01
		C24.77,11.39,21.65,14.5,17.78,14.5z M17.78,12.51c2.74,0.01,4.99-2.23,5-4.96c0.01-2.75-2.23-5.01-4.98-5.02
		c-2.75-0.01-5,2.25-5,4.99C12.8,10.25,15.04,12.5,17.78,12.51z"/>
	<path class="st0" d="M5.82,26.48c0.15,0,0.27,0,0.39,0c4,0,8,0,12.01,0c0.71,0,1.2,0.58,1.05,1.22c-0.1,0.44-0.51,0.77-0.97,0.77
		c-4.5,0-9,0-13.5,0c-0.5,0-0.97-0.39-0.97-0.87c0-1.33-0.09-2.66,0.17-3.98c0.72-3.54,3.74-6.46,7.3-6.99
		c0.52-0.08,1.05-0.12,1.58-0.12c1.8-0.01,3.6-0.01,5.4,0c0.51,0,0.94,0.37,1,0.85c0.06,0.5-0.23,0.97-0.71,1.11
		c-0.13,0.04-0.27,0.04-0.4,0.04c-1.75,0-3.49,0-5.24,0c-3.18,0.01-5.83,1.92-6.79,4.86C5.82,24.35,5.78,25.39,5.82,26.48z"/>
</g>
</svg>
