<?xml version="1.0" encoding="utf-8"?>
<!-- Generator: Adobe Illustrator 26.0.0, SVG Export Plug-In . SVG Version: 6.00 Build 0)  -->
<svg version="1.1" id="Layer_1" xmlns="http://www.w3.org/2000/svg" xmlns:xlink="http://www.w3.org/1999/xlink" x="0px" y="0px"
	 viewBox="0 0 31.58 32.09" style="enable-background:new 0 0 31.58 32.09;" xml:space="preserve">
<style type="text/css">
	.st0{fill:#1C5C2E;}
</style>
<g id="Group_38109" transform="translate(491.013 645.692)">
	<path id="Path_71" class="st0" d="M-475.94-638.03c0.8-0.01,0.65-0.51,0.47-1c-0.78-2.34-2.38-4.32-4.5-5.58
		c-0.73-0.42-1.51-0.76-2.31-1.02c-0.55-0.19-0.92,0.06-0.71,0.72c1,3.23,3.51,5.78,6.73,6.82
		C-476.15-638.06-476.05-638.04-475.94-638.03z"/>
	<path id="Path_72" class="st0" d="M-467.45-645.16c-0.08-0.2-0.24-0.36-0.44-0.44c-0.2-0.08-0.43-0.07-0.62,0.03
		c-0.69,0.31-1.36,0.65-2.02,1.02c-2.09,1.25-3.65,3.22-4.41,5.54c-0.08,0.25-0.14,0.65-0.01,0.79c0.23,0.16,0.53,0.2,0.79,0.11
		c3.23-1.03,5.74-3.58,6.71-6.83C-467.41-645.01-467.42-645.09-467.45-645.16z"/>
	<path id="Path_73" class="st0" d="M-466.53-629.38c0.2,0.06,0.42,0.11,0.64,0.2c2.95,1.06,5.28,3.39,6.33,6.35
		c0.07,0.33,0.1,0.67,0.08,1.01c-0.36,0.04-0.73,0.03-1.08-0.04c-3-1.05-5.35-3.42-6.37-6.42
		C-467.21-629.05-467.07-629.38-466.53-629.38z"/>
	<path id="Path_74" class="st0" d="M-482.72-629.45c0.32,0.09,0.38,0.12,0.44,0.13c2.76,0.55,6.42,4.2,6.91,6.88
		c0.11,0.6-0.1,0.87-0.74,0.74c-2.72-0.53-6.34-4.14-6.87-6.91C-483.02-628.86-482.81-629.17-482.72-629.45z"/>
	<path id="Path_75" class="st0" d="M-475.32-636.92c-0.08,0.24-0.14,0.5-0.23,0.74c-1.07,2.91-3.39,5.19-6.32,6.22
		c-0.33,0.07-0.67,0.1-1.01,0.08c-0.05-0.33-0.05-0.66,0.01-0.99c1.04-3.03,3.43-5.41,6.46-6.45
		C-475.98-637.5-475.45-637.74-475.32-636.92z"/>
	<path id="Path_76" class="st0" d="M-474.21-637.45c0.45,0.2,1.03,0.41,1.58,0.7c2.44,1.23,4.3,3.38,5.15,5.98
		c0.09,0.25,0.15,0.64,0.02,0.8c-0.23,0.15-0.52,0.19-0.78,0.1c-3.22-1.03-5.74-3.56-6.76-6.79
		C-475.22-637.31-474.94-637.51-474.21-637.45z"/>
	<path id="Path_77" class="st0" d="M-466.13-629.89c-0.18,0.06-0.38,0.04-0.54-0.05c-0.17-0.09-0.28-0.25-0.32-0.44
		c-0.02-0.08-0.02-0.17,0.01-0.25c0.4-1.02,0.9-2,1.49-2.93c1.24-1.81,3.06-3.15,5.16-3.81c0.26-0.1,0.55-0.08,0.8,0.05
		c0.13,0.24,0.15,0.53,0.05,0.79C-460.53-633.39-462.99-630.93-466.13-629.89L-466.13-629.89z"/>
	<path id="Path_78" class="st0" d="M-483.24-628.61c-0.46,0.89-0.85,1.83-1.39,2.67c-1.24,1.94-3.11,3.39-5.29,4.12
		c-0.3,0.06-0.61,0.08-0.92,0.06c-0.06-0.3-0.07-0.61-0.03-0.92c1.03-3.12,3.49-5.56,6.61-6.56
		C-483.52-629.51-483.28-629.32-483.24-628.61z"/>
	<path id="Path_79" class="st0" d="M-475.94-621.26c0.8,0.01,0.65,0.51,0.47,1c-0.78,2.34-2.38,4.32-4.5,5.58
		c-0.73,0.42-1.51,0.77-2.31,1.02c-0.55,0.19-0.92-0.06-0.71-0.72c1-3.23,3.51-5.78,6.72-6.82
		C-476.16-621.23-476.05-621.25-475.94-621.26z"/>
	<path id="Path_80" class="st0" d="M-467.45-614.14c-0.08,0.2-0.24,0.36-0.44,0.44c-0.2,0.08-0.43,0.07-0.62-0.03
		c-0.69-0.31-1.36-0.65-2.02-1.02c-2.09-1.25-3.65-3.22-4.4-5.53c-0.08-0.25-0.14-0.65-0.01-0.79c0.23-0.16,0.53-0.2,0.79-0.11
		c3.23,1.03,5.74,3.58,6.71,6.83C-467.41-614.28-467.42-614.2-467.45-614.14z"/>
	<path id="Path_81" class="st0" d="M-483.33-630.33c-0.04,0.75-0.53,0.57-0.97,0.42c-1.91-0.59-3.59-1.77-4.8-3.37
		c-0.72-1.04-1.32-2.15-1.81-3.31c-0.31-0.69,0.05-1.06,0.75-0.82c3.23,1.01,5.76,3.54,6.77,6.77
		C-483.36-630.54-483.34-630.43-483.33-630.33z"/>
	<path id="Path_82" class="st0" d="M-467.89-629.35c0.63,0.05,0.59,0.43,0.41,0.94c-0.85,2.56-2.66,4.69-5.05,5.94
		c-0.57,0.31-1.18,0.56-1.8,0.74c-0.51,0.16-0.82-0.04-0.7-0.66c0.52-2.72,4.13-6.35,6.88-6.9
		C-468.07-629.3-468.02-629.32-467.89-629.35z"/>
</g>
</svg>
