<?xml version="1.0" encoding="utf-8"?>
<!-- Generator: Adobe Illustrator 26.0.0, SVG Export Plug-In . SVG Version: 6.00 Build 0)  -->
<svg version="1.1" id="Layer_1" xmlns="http://www.w3.org/2000/svg" xmlns:xlink="http://www.w3.org/1999/xlink" x="0px" y="0px"
	 viewBox="0 0 36.63 30" style="enable-background:new 0 0 36.63 30;" xml:space="preserve">
<style type="text/css">
	.st0{fill:#FFFFFF;}
</style>
<g>
	<path class="st0" d="M0.87,20.31c0.16-0.5,0.25-1.04,0.48-1.51c0.93-1.92,2.49-2.93,4.62-2.98c1.36-0.03,2.73-0.03,4.08,0.07
		c0.53,0.04,0.76-0.05,1.06-0.49c1.01-1.47,2.47-2.2,4.26-2.21c2.09-0.01,4.18-0.03,6.27,0.03c1.74,0.05,3.08,0.92,4.01,2.38
		c0.19,0.3,0.35,0.39,0.7,0.3c0.35-0.09,0.72-0.09,1.08-0.09c1.04-0.01,2.09-0.01,3.13,0c2.71,0.01,4.84,1.9,5.18,4.58
		c0.03,0.27,0.02,0.54,0.02,0.82c0,1.7,0.01,3.41,0,5.11c-0.01,1.49-0.9,2.66-2.35,3.03c-0.3,0.08-0.63,0.1-0.94,0.1
		c-9.44,0-18.87,0-28.31,0.01c-1.71,0-2.98-1.09-3.24-2.53c-0.01-0.03-0.03-0.06-0.05-0.08C0.87,24.67,0.87,22.49,0.87,20.31z
		 M24.39,27.39c0-0.14,0-0.25,0-0.36c0-2.85,0-5.7,0-8.55c0-1.93-1.3-3.22-3.22-3.23c-1.9,0-3.79,0-5.69,0
		c-1.95,0-3.23,1.29-3.24,3.25c0,2.84,0,5.67,0,8.51c0,0.12,0,0.24,0,0.37C16.3,27.39,20.32,27.39,24.39,27.39z M10.18,27.4
		c0-0.18,0-0.32,0-0.45c0-2.87-0.01-5.74,0.01-8.61c0-0.32-0.09-0.43-0.39-0.43c-1.28-0.01-2.56-0.03-3.84-0.03
		c-0.23,0-0.48,0.04-0.7,0.1c-1.47,0.41-2.33,1.53-2.35,3.07c-0.01,1.74-0.01,3.47,0,5.21c0,0.75,0.41,1.15,1.16,1.15
		c1.5,0,3,0,4.49,0C9.09,27.4,9.61,27.4,10.18,27.4z M26.45,27.38c0.09,0.01,0.14,0.02,0.18,0.02c2.02,0,4.04,0,6.06,0
		c0.59,0,1-0.43,1.03-1.04c0.01-0.37,0.01-0.75,0-1.12c-0.02-1.59,0-3.18-0.07-4.76c-0.06-1.27-1.34-2.49-2.61-2.55
		c-1.06-0.05-2.13-0.05-3.2-0.06c-0.37,0-0.75,0.03-1.12,0.05c-0.19,0.01-0.29,0.08-0.29,0.32c0.01,2.9,0.01,5.81,0.01,8.71
		C26.45,27.09,26.45,27.22,26.45,27.38z"/>
	<path class="st0" d="M18.33,0.53c3.39,0.02,6.07,2.74,6.05,6.14c-0.02,3.31-2.77,6.02-6.09,6c-3.35-0.02-6.05-2.76-6.03-6.13
		C12.27,3.22,15,0.51,18.33,0.53z M18.32,2.59c-2.22,0-4.03,1.81-4.03,4.02c0,2.19,1.81,4,4.01,4.01c2.2,0.01,4.04-1.83,4.03-4.03
		C22.33,4.38,20.53,2.59,18.32,2.59z"/>
	<path class="st0" d="M7.9,6.17c2.54,0.12,4.51,2.3,4.32,4.85c-0.19,2.55-2.41,4.45-4.88,4.22c-2.64-0.24-4.32-2.47-4.19-4.78
		C3.3,7.86,5.52,6.05,7.9,6.17z M5.21,10.7c-0.01,1.37,1.11,2.5,2.48,2.5c1.37,0,2.5-1.14,2.48-2.5C10.16,9.33,9.07,8.24,7.7,8.23
		C6.32,8.22,5.22,9.32,5.21,10.7z"/>
	<path class="st0" d="M28.76,6.17c2.38-0.1,4.58,1.71,4.72,4.33c0.12,2.33-1.59,4.51-4.19,4.75c-2.47,0.23-4.69-1.67-4.88-4.22
		C24.22,8.51,26.16,6.28,28.76,6.17z M31.42,10.7c-0.01-1.39-1.12-2.48-2.5-2.47c-1.36,0.01-2.46,1.11-2.47,2.47
		c-0.01,1.36,1.13,2.5,2.49,2.49C30.31,13.2,31.43,12.07,31.42,10.7z"/>
</g>
</svg>
